<?xml version="1.0" encoding="UTF-8" standalone="no"?>
<!-- Uploaded to: SVG Repo, www.svgrepo.com, Generator: SVG Repo Mixer Tools -->

<svg
   width="800px"
   height="800px"
   viewBox="0 0 128 128"
   aria-hidden="true"
   role="img"
   class="iconify iconify--noto"
   preserveAspectRatio="xMidYMid meet"
   version="1.1"
   id="svg4856"
   sodipodi:docname="feasibility-gray.svg"
   inkscape:version="1.2.2 (b0a8486541, 2022-12-01)"
   xmlns:inkscape="http://www.inkscape.org/namespaces/inkscape"
   xmlns:sodipodi="http://sodipodi.sourceforge.net/DTD/sodipodi-0.dtd"
   xmlns="http://www.w3.org/2000/svg"
   xmlns:svg="http://www.w3.org/2000/svg">
  <defs
     id="defs4860" />
  <sodipodi:namedview
     id="namedview4858"
     pagecolor="#ffffff"
     bordercolor="#000000"
     borderopacity="0.25"
     inkscape:showpageshadow="2"
     inkscape:pageopacity="0.0"
     inkscape:pagecheckerboard="0"
     inkscape:deskcolor="#d1d1d1"
     showgrid="false"
     inkscape:zoom="0.74422989"
     inkscape:cx="302.99778"
     inkscape:cy="508.57941"
     inkscape:window-width="1854"
     inkscape:window-height="1011"
     inkscape:window-x="66"
     inkscape:window-y="32"
     inkscape:window-maximized="1"
     inkscape:current-layer="svg4856" />
  <path
     d="M116.46 3.96h-104c-4.42 0-8 3.58-8 8v104c0 4.42 3.58 8 8 8h104c4.42 0 8-3.58 8-8v-104c0-4.42-3.58-8-8-8z"
     fill="#689f38"
     id="path4848"
     style="fill:#4b555b;fill-opacity:1" />
  <path
     d="M110.16 3.96h-98.2a7.555 7.555 0 0 0-7.5 7.5v97.9c-.01 4.14 3.34 7.49 7.48 7.5H110.06c4.14.01 7.49-3.34 7.5-7.48V11.46c.09-4.05-3.13-7.41-7.18-7.5h-.22z"
     fill="#7cb342"
     id="path4850"
     style="fill:#374151;fill-opacity:1" />
  <path
     d="M40.16 12.86c0-2.3-1.6-3-10.8-2.7c-7.7.3-11.5 1.2-13.8 4s-2.9 8.5-3 15.3c0 4.8 0 9.3 2.5 9.3c3.4 0 3.4-7.9 6.2-12.3c5.4-8.7 18.9-10.6 18.9-13.6z"
     opacity=".3"
     fill="#ffffff"
     id="path4852" />
  <path
     d="M43.26 109.46a8.862 8.862 0 0 1-8.7-6.2l-15.1-45.5c-1.46-4.81 1.26-9.9 6.07-11.36c4.65-1.41 9.59 1.08 11.23 5.66l9.8 29.5l47.1-59.6c3.12-3.95 8.85-4.62 12.8-1.5s4.62 8.85 1.5 12.8l-57.6 72.7a9.086 9.086 0 0 1-7.1 3.5z"
     fill="#fbf9f9"
     id="path4854" />
</svg>
