<?xml version="1.0" encoding="UTF-8" standalone="no"?>
<!-- Uploaded to: SVG Repo, www.svgrepo.com, Generator: SVG Repo Mixer Tools -->

<svg
   fill="#000000"
   height="800px"
   width="800px"
   version="1.1"
   id="Icons"
   viewBox="0 0 32 32"
   xml:space="preserve"
   sodipodi:docname="strategy-blue.svg"
   inkscape:version="1.2.2 (b0a8486541, 2022-12-01)"
   xmlns:inkscape="http://www.inkscape.org/namespaces/inkscape"
   xmlns:sodipodi="http://sodipodi.sourceforge.net/DTD/sodipodi-0.dtd"
   xmlns="http://www.w3.org/2000/svg"
   xmlns:svg="http://www.w3.org/2000/svg"><defs
   id="defs3945" /><sodipodi:namedview
   id="namedview3943"
   pagecolor="#ffffff"
   bordercolor="#000000"
   borderopacity="0.25"
   inkscape:showpageshadow="2"
   inkscape:pageopacity="0.0"
   inkscape:pagecheckerboard="0"
   inkscape:deskcolor="#d1d1d1"
   showgrid="false"
   inkscape:zoom="0.52625"
   inkscape:cx="380.99762"
   inkscape:cy="455.10689"
   inkscape:window-width="927"
   inkscape:window-height="1011"
   inkscape:window-x="66"
   inkscape:window-y="32"
   inkscape:window-maximized="0"
   inkscape:current-layer="Icons" />
<g
   id="g3940"
   style="fill:#1e40af;fill-opacity:1">
	<path
   d="M7.2,16l1.1-0.2c1.6-0.3,3.3-0.5,5-0.7c-2.4,2.3-3.9,5.3-4.7,7.9h14.7c0.4-1.5,1.1-3,2.3-4.1l0.2-0.2   c0.2-0.2,0.3-0.4,0.3-0.6C26.6,13,24.2,8,19.8,5.3c-0.8-1.4-2-2.4-3.6-2.9l-0.9-0.3C15,2,14.7,2,14.4,2.2C14.2,2.4,14,2.7,14,3v2.4   l-1.4,0.7C12.2,6.3,12,6.6,12,7v0.5l-4.7,3.1C6.5,11.1,6,12.1,6,13.1V15c0,0.3,0.1,0.6,0.4,0.8C6.6,16,6.9,16,7.2,16z"
   id="path3936"
   style="fill:#1e40af;fill-opacity:1" />
	<path
   d="M6.8,25C6.3,25.5,6,26.2,6,27v2c0,0.6,0.4,1,1,1h18c0.6,0,1-0.4,1-1v-2c0-0.8-0.3-1.5-0.8-2H6.8z"
   id="path3938"
   style="fill:#1e40af;fill-opacity:1" />
</g>
</svg>
